<svg width="24" height="24" viewBox="0 0 24 24" fill="none" xmlns="http://www.w3.org/2000/svg">
  <path d="M12 4C7.58172 4 4 7.58172 4 12C4 16.4183 7.58172 20 12 20C16.4183 20 20 16.4183 20 12C20 7.58172 16.4183 4 12 4ZM3 12C3 7.02944 7.02944 3 12 3C16.9706 3 21 7.02944 21 12C21 16.9706 16.9706 21 12 21C7.02944 21 3 16.9706 3 12Z" fill="currentColor"/>
  <circle cx="9" cy="10" r="1.5" fill="currentColor"/>
  <circle cx="15" cy="10" r="1.5" fill="currentColor"/>
  <path d="M8 14C8 14 9.5 16 12 16C14.5 16 16 14 16 14" stroke="currentColor" stroke-width="1.5" stroke-linecap="round"/>
</svg>