<svg xmlns="http://www.w3.org/2000/svg" viewBox="0 0 100 100" preserveAspectRatio="none" width="100%" height="100%">
  <defs>
    <linearGradient id="grad1" x1="0%" y1="0%" x2="100%" y2="100%">
      <stop offset="0%" style="stop-color:#6366f1;stop-opacity:0.8" />
      <stop offset="100%" style="stop-color:#818cf8;stop-opacity:0.6" />
    </linearGradient>
    <pattern id="pattern1" x="0" y="0" width="20" height="20" patternUnits="userSpaceOnUse">
      <path d="M10,2 L18,10 L10,18 L2,10 Z" fill="rgba(255,255,255,0.1)" />
    </pattern>
  </defs>
  <rect width="100%" height="100%" fill="url(#grad1)" />
  <rect width="100%" height="100%" fill="url(#pattern1)" />
  <g transform="translate(50,50)">
    <path d="M0,-30 C10,-30 30,-10 30,0 C30,10 10,30 0,30 C-10,30 -30,10 -30,0 C-30,-10 -10,-30 0,-30 Z" fill="rgba(255,255,255,0.05)" />
    <path d="M0,-20 C7,-20 20,-7 20,0 C20,7 7,20 0,20 C-7,20 -20,7 -20,0 C-20,-7 -7,-20 0,-20 Z" fill="rgba(255,255,255,0.08)" />
    <path d="M0,-10 C3,-10 10,-3 10,0 C10,3 3,10 0,10 C-3,10 -10,3 -10,0 C-10,-3 -3,-10 0,-10 Z" fill="rgba(255,255,255,0.1)" />
  </g>
</svg>